<?xml version="1.0" encoding="UTF-8"?>
<svg width="1600" height="1100" viewBox="0 0 1600 1100" fill="none" xmlns="http://www.w3.org/2000/svg">
  <defs>
    <linearGradient id="bg" x1="0" y1="0" x2="1600" y2="1100" gradientUnits="userSpaceOnUse">
      <stop stop-color="#FFF9ED"/>
      <stop offset="0.5" stop-color="#FFFFFF"/>
      <stop offset="1" stop-color="#EAB30822"/>
    </linearGradient>
    <linearGradient id="card" x1="250" y1="180" x2="1300" y2="930" gradientUnits="userSpaceOnUse">
      <stop stop-color="#FFFFFF"/>
      <stop offset="1" stop-color="#F8F5EF"/>
    </linearGradient>
  </defs>
  <rect width="1600" height="1100" rx="48" fill="url(#bg)"/>
  <circle cx="1360" cy="180" r="160" fill="#EAB30825"/>
  <circle cx="190" cy="980" r="200" fill="#EAB30818"/>
  <rect x="188" y="146" width="1224" height="788" rx="42" fill="url(#card)" stroke="#E5DDD1" stroke-width="2"/>
  <rect x="248" y="214" width="396" height="44" rx="22" fill="#EAB30818"/>
  <text x="248" y="344" fill="#191615" font-family="Arial, sans-serif" font-size="74" font-weight="700">Frame Video Spotlight</text>
  <text x="248" y="404" fill="#6F645A" font-family="Arial, sans-serif" font-size="28">SwiftUI component preview generated by the CopyMyUI seed.</text>
  <rect x="248" y="470" width="380" height="276" rx="34" fill="#FFF" stroke="#EFE6DB"/>
  <rect x="672" y="470" width="468" height="276" rx="34" fill="#EAB30810" stroke="#EAB30835"/>
  <rect x="248" y="786" width="892" height="84" rx="28" fill="#FCFAF6" stroke="#EFE6DB"/>
  <rect x="1180" y="470" width="172" height="400" rx="34" fill="#FFF" stroke="#EFE6DB"/>
  <rect x="280" y="515" width="220" height="22" rx="11" fill="#EAB30826"/>
  <rect x="280" y="560" width="310" height="16" rx="8" fill="#EDE2D6"/>
  <rect x="280" y="598" width="270" height="16" rx="8" fill="#EDE2D6"/>
  <rect x="704" y="516" width="212" height="20" rx="10" fill="#EAB30832"/>
  <rect x="704" y="564" width="364" height="18" rx="9" fill="#FFFFFF"/>
  <rect x="704" y="608" width="318" height="18" rx="9" fill="#FFFFFF"/>
  <rect x="1212" y="516" width="108" height="18" rx="9" fill="#EDE2D6"/>
  <rect x="1212" y="562" width="92" height="18" rx="9" fill="#EDE2D6"/>
  <rect x="1212" y="608" width="76" height="18" rx="9" fill="#EDE2D6"/>
</svg>